# xmcd CD database file
#
# Track frame offsets:
#	150
#	19970
#	36382
#	61407
#	83357
#	108162
#	126680
#	149030
#	167780
#	185625
#	212295
#	232210
#	245170
#	264157
#	289332
#	306192
#
# Disc length: 4521 seconds
#
# Revision: 2
# Processed by: cddbd v1.4b41PL1 Copyright (c) Steve Scherf et al.
# Submitted via: Feurio! 1.60 - http://www.feurio.com
#
DISCID=f511a710,fa11a710
DTITLE=Various Artist - We Came To Dance Vol. II
DYEAR=1900
DGENRE=
TTITLE0=Calva Y Nada - Rascheln
TTITLE1=Engellstaub - Fallen Angel
TTITLE2=Project Pitchfork - Song of the Winds
TTITLE3=Beborn Baten - Torture
TTITLE4=The Fair Sex - Not Now, Not Here
TTITLE5=Twice a Man - Decay
TTITLE6=S.P.O.C.K. - Neutral Zone
TTITLE7=Some More Crime - Der Tod ist ein Meister
TTITLE8=Der Liederkranz - Der Almanach 2000
TTITLE9=Clock DVA - Voice Recognition Test
TTITLE10=Mentallo and The Fixer - Decomposed
TTITLE11=Relatives Menscheinen - Verbotene Triebe
TTITLE12=Nocrophilistic Anodyne - Sleeping Angel
TTITLE13=Haujobb - Homes and Gardens
TTITLE14=Wolfsheim - A Look Into Your Heart
TTITLE15=Deine Lakaien - Colour-Ize
EXTD=
EXTT0=
EXTT1=
EXTT2=
EXTT3=
EXTT4=
EXTT5=
EXTT6=
EXTT7=
EXTT8=
EXTT9=
EXTT10=
EXTT11=
EXTT12=
EXTT13=
EXTT14=
EXTT15=
PLAYORDER=
